<?xml version="1.0" encoding="iso-8859-1"?>
<!-- Generator: Adobe Illustrator 24.1.0, SVG Export Plug-In . SVG Version: 6.00 Build 0)  -->
<svg version="1.1" id="Calque_1" xmlns="http://www.w3.org/2000/svg" xmlns:xlink="http://www.w3.org/1999/xlink" x="0px" y="0px"
	 width="288px" height="288px" viewBox="0 0 288 288" enable-background="new 0 0 288 288" xml:space="preserve">
<path d="M195.096,79.11c-10.088,5.23-9.63,13.952-8.701,22.916c0.571,5.51-0.15,10.92-2.097,16.137
	c-0.548,1.467-1.149,2.493,1.274,3.31c18.94,6.382,29.872,15.499,39.998,32.95c-1.405,1.023-2.566-0.157-3.654-0.576
	c-5.234-2.012-10.042-1.313-14.616,1.796c-6.658,4.523-13.282,9.132-21.56,10.251c-1.744,0.236-2.29,1.011-1.657,2.777
	c5.579,15.574,0.766,29.941-5.229,44.154c-0.862,2.044-1.827,4.046-2.779,6.051c-0.132,0.278-0.466,0.46-1.35,1.293
	c0.025-11.191-7.57-15.374-15.943-19.061c-5.051-2.224-9.426-5.564-12.893-9.937c-1.114-1.405-1.911-2.207-3.478-0.343
	c-10.659,12.682-25.575,15.586-40.857,17.567c-2.517,0.326-5.06,0.456-7.579,0.676c-0.295-1.559,0.855-1.987,1.606-2.525
	c5.102-3.653,6.811-8.635,6.401-14.755c-0.526-7.842-1.226-15.769,2.015-23.284c1.106-2.563-0.823-2.445-2.187-2.726
	c-18.992-3.917-29.094-18.366-39.377-33.245c9.87,5.236,17.272,0.371,24.682-4.987c4.341-3.138,9.315-4.983,14.582-6.057
	c1.182-0.241,3.426,0.368,2.38-2.475c-5.351-14.553-1.499-28.282,3.991-41.819c1.278-3.151,2.733-6.23,4.116-9.364
	c0.51,0.212,0.986,0.301,0.997,0.43c0.788,9.247,6.675,14.005,14.651,17.271c5.589,2.288,10.455,5.813,14.292,10.592
	c1.021,1.272,1.818,2.437,3.474,0.452c10.352-12.409,24.865-15.48,39.809-17.493c2.867-0.386,5.756-0.6,8.635-0.893
	C194.393,78.497,194.744,78.803,195.096,79.11z M103.436,204.024c7.635-0.457,14.37-2.023,20.847-4.714
	c16.492-6.852,23.178-18.702,20.472-36.298c-0.322-2.097-0.25-4.333-3.391-4.929c-2.771-0.525-4.311,0.07-5.931,2.378
	c-3.633,5.178-7.6,10.124-11.471,15.133c-2.175,2.814-4.428,5.567-6.646,8.347c4.707-8.922,11.022-16.626,15.874-25.307
	c0.938-1.679,1.954-3.041,0.041-4.925c-1.482-1.46-2.6-2.216-4.821-1.587c-15.1,4.276-24.273,17.144-23.086,32.81
	C105.801,191.242,106.658,197.544,103.436,204.024z M193.636,147.433c-10.413-0.225-20.718-2.137-31.152-1.792
	c-1.846,0.061-3.583-0.251-4.378,2.359c-0.707,2.321-0.389,3.616,1.441,5.238c12.334,10.935,26.03,12.098,39.902,3.045
	c5.225-3.41,10.206-7.228,17.19-7.739c-4.337-6.33-9.039-11.456-14.634-15.717c-14.094-10.735-27.839-10.504-41.613,0.633
	c-1.645,1.33-3.505,2.208-2.523,5.319c0.999,3.166,2.769,3.673,5.548,4.006C173.532,144,183.7,144.936,193.636,147.433z
	 M111.92,78.106c-3.292,7.715-5.585,14.56-6.378,21.918c-1.777,16.495,4.814,27.843,20.141,34.052
	c2.292,0.929,4.515,2.874,7.331-0.108c2.647-2.803,1.211-4.882,0.195-7.341c-3.648-8.836-7.295-17.673-10.942-26.51
	c5.428,8.231,8.727,17.453,13.741,25.818c1.111,1.853,1.73,3.913,4.866,3.417c3.307-0.523,3.503-2.76,3.891-5.103
	c2.675-16.171-3.102-27.606-17.751-34.978C121.673,86.583,116.034,84.375,111.92,78.106z M184.449,83.658
	c-2.809-0.938-5.283,0.195-7.715,0.646c-10.422,1.931-20.13,5.493-27.424,13.692c-1.4,1.574-3.517,3.162-2.557,5.742
	c2.84,7.626,2.909,15.355,1.221,23.204c-0.215,0.998-0.309,2.111,1.029,2.504c0.919,0.269,1.652-0.115,2.217-0.855
	c0.829-1.085,1.657-2.172,2.489-3.255c4.997-6.499,9.995-12.997,14.993-19.495c0.36,0.26,0.72,0.521,1.079,0.781
	c-1.231,1.747-2.495,3.473-3.688,5.246c-3.621,5.383-7.293,10.734-10.757,16.217c-0.782,1.238-2.995,2.795-1.153,4.329
	c1.501,1.25,2.626-0.947,3.706-1.814c4.304-3.458,8.82-7.125,14.233-7.784c7.559-0.921,9.172-5.823,10.242-11.814
	c0.669-3.746,0.687-7.512,0.223-11.234C181.9,94.244,182.006,88.872,184.449,83.658z M71.479,138.806
	c3.859,5.832,8.248,10.534,13.257,14.663c5.079,4.187,10.739,7.329,17.265,8.552c2.422,0.454,4.915,1.04,6.97-1.581
	c4.345-5.54,10.267-8.876,16.831-11.217c1.425-0.508,3.922-0.308,3.47-2.845c-0.362-2.03-2.432-1.444-3.852-1.639
	c-10.448-1.43-20.903-2.813-31.355-4.211c1.93-0.617,3.808-0.775,5.651-0.59c8.669,0.87,17.315,2.054,26.057,1.745
	c1.214-0.043,3.175,0.764,3.418-1.118c0.22-1.704-1.763-1.75-2.975-2.205c-5.323-1.998-10.889-4.123-14.35-8.604
	c-4.788-6.199-10.07-5.155-15.819-2.635c-2.954,1.295-5.835,2.865-8.507,4.668C82.717,135.046,77.937,138.274,71.479,138.806z
	 M165.575,186.56c-2.494-1.488-3.177-3.939-4.182-6.166c-2.813-6.236-5.525-12.522-9.074-18.385
	c-0.903-1.491-1.273-4.478-3.383-3.816c-2.292,0.719-0.602,3.248-0.372,4.919c0.804,5.833,1.259,11.801-0.951,17.242
	c-1.8,4.433-0.279,7.253,2.562,9.97c2.089,1.998,4.344,3.895,6.769,5.457c6.469,4.164,14.504,5.839,19.153,13.27
	c2.594-5.404,4.155-10.103,5.302-14.932c1.935-8.141,2.209-16.24-0.787-24.247c-0.914-2.442-2.3-3.954-5.058-4.382
	c-6.614-1.026-12.178-4.278-17.246-8.545c-1.184-0.996-2.248-3.273-4.119-2.153c-2.424,1.451-0.322,3.409,0.293,4.937
	C158.093,168.708,161.86,177.623,165.575,186.56z"/>
</svg>
